<svg xmlns="http://www.w3.org/2000/svg" viewBox="0 0 194.72 194.72"><g id="Layer_2" data-name="Layer 2"><g id="Layer_1-2" data-name="Layer 1"><path d="M192.82,78.13A97.68,97.68,0,0,0,174.48,38,97.34,97.34,0,0,0,21.19,36.73l-1,1.22A97,97,0,0,0,0,97.36a98.58,98.58,0,0,0,1.41,16.57l.45,2.61h0a95.78,95.78,0,0,0,16,37.07l.95,1.32h0a97.33,97.33,0,0,0,157,0l1-1.32a96.16,96.16,0,0,0,16-37.34c.15-.78.29-1.55.43-2.33h0a97.86,97.86,0,0,0-.48-35.8ZM22.34,149A89.8,89.8,0,0,1,8.4,117c13.3,1.38,26.74,2.45,40.07,3.18a152.19,152.19,0,0,0,8.39,35.15A308.39,308.39,0,0,1,22.34,149Zm6.06,7.83c10.23,2.21,20.67,3.92,31.18,5.11l.1.23h0c4.67,10.2,10.35,18.25,16.64,23.79A91.19,91.19,0,0,1,28.4,156.83ZM94.22,188.2c-10.15-1.56-19.83-10.61-27.3-25.49,9,.83,18.17,1.29,27.3,1.38Zm0-30.4c-10.16-.1-20.33-.67-30.31-1.71a141.94,141.94,0,0,1-9.06-35.6c12.95.64,26.15,1,39.37,1Zm3.08-44.47V25.9L87.62,33v80.33H84.8V45L78,40.09v73.24h-.52l-1.22,0c-.9,0-1.79,0-2.7-.08l-.84,0-1.5,0c-.74,0-1.49,0-2.22-.09h-.46c-.18,0-.38,0-.56,0L66.22,113l-1.77-.06-1.19-.07h-.57V60.71l-6.34-4.63v56.43h-.2l-.65,0h-.23c-.49,0-1-.06-1.49-.09l-.68,0-2-.11c-.14,0-.29,0-.42,0l-1.67-.1c-1-.06-2-.11-3-.18l-2.74-.18V62.37l10.79-7.91,2.2-1.61,0,0,2.09,1.52,4.25,3.11V48.19l13.2-9.69L78,36.93l.06,0,2.1,1.54,4.61,3.38v-10l2.82-2.08,7.52-5.5,2.16-1.59,0,0,2.2,1.62,10.39,7.63v9.92l4.57-3.35,2.15-1.57,0,0,2.15,1.57L132,48.19v9.32l4.21-3.08,2.13-1.55v0l2.21,1.61,10.78,7.91v49.36l-2.74.18-2.95.18-1.67.1c-.13,0-.28,0-.42,0l-2,.11-.68,0c-.5,0-1,0-1.5.09h-.24l-.64,0h-.18V56.08L132,60.71v52.1h-.6l-1.16.07c-.6,0-1.19,0-1.79.06l-1.79.07-.42,0h-.58l-2.25.09-1.49,0-.83,0-2.7.09-1.22,0a4.35,4.35,0,0,1-.51,0h0V40.09L109.92,45v68.29Zm42.56,7.16a142.38,142.38,0,0,1-9,35.6c-10,1-20.16,1.61-30.33,1.71V121.52C113.7,121.48,126.92,121.13,139.86,120.49ZM100.5,188.2V164.09c9.12-.09,18.28-.55,27.3-1.38C120.32,177.59,110.65,186.64,100.5,188.2ZM118.36,186c6.3-5.54,12-13.59,16.65-23.79l.1-.23a314,314,0,0,0,31.2-5.11A91.12,91.12,0,0,1,118.36,186Zm54.16-37.16-.14.2a309.64,309.64,0,0,1-34.52,6.3,152.71,152.71,0,0,0,8.39-35.15c13.33-.73,26.77-1.8,40.05-3.17A89.15,89.15,0,0,1,172.52,148.8ZM97.3,25.87v0l0,0Z"/><path d="M192.87,116.27h0l.4-2.33C193.16,114.72,193,115.49,192.87,116.27Z"/></g></g></svg>