<svg xmlns="http://www.w3.org/2000/svg" viewBox="0 0 287.16 74.51"><g id="Layer_2" data-name="Layer 2"><g id="Layer_1-2" data-name="Layer 1"><path d="M43.35,30.41V17.91L30,9.57V64.91l13.35-8.34V44a.6.6,0,0,1,.6-.6H59.49a.51.51,0,0,1,.51.51V55.49a.86.86,0,0,1-.4.73L43.35,66.38,30.66,74.3a1.33,1.33,0,0,1-1.41,0L.65,56.43A1.4,1.4,0,0,1,0,55.25v-36a1.41,1.41,0,0,1,.65-1.18L29.29.2a1.35,1.35,0,0,1,1.42,0L43.35,8.11,59.6,18.27A.86.86,0,0,1,60,19V30.5a.51.51,0,0,1-.51.51H44A.6.6,0,0,1,43.35,30.41Z"/><path d="M77.16,38.83V35.49c0-9.75,6-14.57,18.67-14.62,12.26.05,18.42,4.25,18.42,12.42v.33H106.1v-.33c-.06-4.87-3.58-6.78-10.27-6.78-7,0-10.51,2.43-10.51,8.93v3.44c0,6.68,3.52,9.12,10.51,9.12,6.69,0,10.27-1.91,10.27-6.83v-.29h8.15v.29c0,8.26-6.1,12.42-18.42,12.47C83.15,53.59,77.16,48.77,77.16,38.83Z"/><path d="M137.25,21.42h-8.16L113.88,53.09h7.87l2.82-6L127,42l6.22-13.33L139.42,42l2.41,5.11,2.81,6h7.8Z"/><path d="M189.36,43.65v.24c0,5.59-4.52,9.17-15.14,9.17H155.73V21.44H175c8.39,0,11.92,2.63,12,7.41v.23c0,3.4-2.11,6-6.33,7.12C186.6,37.06,189.36,39.74,189.36,43.65ZM179,30.47c0-2-1.58-3.44-5.87-3.44h-9.39v7.12h8.51c5.23,0,6.75-1.58,6.75-3.49Zm1.88,12.37c0-2.24-1.76-3.68-7.39-3.68h-9.75v8.36h10c5.34,0,7.16-1.91,7.16-4.53Z"/><path d="M216.47,53.06l-9.09-11.84H201V53.06h-8V21.44h16.72c9.92,0,14.21,3,14.26,9.51v.33c0,5.21-2.4,8.22-8,9.41l9.86,12.37ZM201,27.13v8.69h8.8c4.52,0,6-1.72,6-4.3v-.29c-.06-2.48-1.59-4.1-6-4.1Z"/><path d="M229.62,53.06V21.44h8V53.06Z"/><path d="M242.44,38.83V35.49c0-9.75,6-14.57,18.66-14.62,12.27.05,18.43,4.25,18.43,12.42v.33h-8.16v-.33c-.06-4.87-3.58-6.78-10.27-6.78-7,0-10.51,2.43-10.51,8.93v3.44c0,6.68,3.53,9.12,10.51,9.12,6.69,0,10.27-1.91,10.27-6.83v-.29h8.16v.29c0,8.26-6.11,12.42-18.43,12.47C248.42,53.59,242.44,48.77,242.44,38.83Z"/><path d="M280.42,25.65V22.39h-1.25v-.62h3.12v.62h-1.21v3.26Z"/><path d="M282.8,25.65V21.77h1.09L285,25.23l1.1-3.46h1.09v3.88h-.63V22.31l-1.06,3.34h-1l-1.05-3.32v3.32Z"/></g></g></svg>