<svg xmlns="http://www.w3.org/2000/svg" viewBox="0 0 60 74.51"><defs><style>.cls-1{fill:#fff;}</style></defs><g id="Layer_2" data-name="Layer 2"><g id="Layer_1-2" data-name="Layer 1"><path class="cls-1" d="M43.35,30.41V17.91L30,9.57V64.91l13.35-8.34V44a.6.6,0,0,1,.6-.6H59.49a.51.51,0,0,1,.51.51V55.49a.86.86,0,0,1-.4.73L43.35,66.38,30.66,74.3a1.33,1.33,0,0,1-1.41,0L.65,56.43A1.4,1.4,0,0,1,0,55.25v-36a1.41,1.41,0,0,1,.65-1.18L29.29.2a1.35,1.35,0,0,1,1.42,0L43.35,8.11,59.6,18.27A.86.86,0,0,1,60,19V30.5a.51.51,0,0,1-.51.51H44A.6.6,0,0,1,43.35,30.41Z"/></g></g></svg>